<svg style="display:none"><defs><svg id="op3-icons-button-circle-play-2" xmlns="http://www.w3.org/2000/svg" viewBox="0 0 32 32"><path fill="currentColor" d="M16 0C7.178 0 0 7.178 0 16s7.178 16 16 16 16-7.178 16-16S24.822 0 16 0zm-3.967 8c.176.006.35.059.504.156l11 7a1.001 1.001 0 010 1.688l-11 7a1.01 1.01 0 01-1.017.033A1.002 1.002 0 0111 23V9a1.002 1.002 0 011.033-1z"/></svg><svg id="op3-icons-check-2-2" xmlns="http://www.w3.org/2000/svg" viewBox="0 0 32 32"><path fill="currentColor" d="M28.586 5.586L12 22.172l-8.586-8.586-2.828 2.828L12 27.828 31.414 8.414l-2.828-2.828z"/></svg><svg id="op3-icons-small-right" xmlns="http://www.w3.org/2000/svg" viewBox="0 0 32 32"><path fill="currentColor" d="M13 8.586L11.586 10l6 6-6 6L13 23.414 20.414 16 13 8.586z"/></svg><svg id="op3-icons-volume-97-2" xmlns="http://www.w3.org/2000/svg" viewBox="0 0 32 32"><path fill="currentColor" d="M19.922 2.004a.995.995 0 00-.51.187L8.676 10H1a1 1 0 00-1 1v10a1 1 0 001 1h7.676l10.736 7.809a.997.997 0 001.041.082A1 1 0 0021 29V3a1 1 0 00-1.078-.996zm7.877 4.853l-1.414 1.414.707.708C28.968 10.854 30 13.348 30 16s-1.032 5.147-2.908 7.022l-.707.707 1.414 1.414.707-.707C30.759 22.183 32 19.187 32 16s-1.241-6.182-3.494-8.435l-.707-.707zm-3.436 3.436l-1.414 1.414.707.707a5.076 5.076 0 010 7.172l-.707.707 1.414 1.414.708-.707a7.08 7.08 0 000-10l-.708-.707z"/></svg></defs></svg>